<svg id="Слой_1" data-name="Слой 1" xmlns="http://www.w3.org/2000/svg" xmlns:xlink="http://www.w3.org/1999/xlink" viewBox="0 0 800 800"><defs><style>.cls-1{fill:url(#Безымянный_градиент_26);}.cls-2{fill:url(#Безымянный_градиент_32);}.cls-3{fill:url(#Безымянный_градиент_32-2);}.cls-4{fill:url(#Безымянный_градиент_32-3);}.cls-5{fill:url(#Безымянный_градиент_32-4);}.cls-6{font-size:36px;fill:#3c3c3b;}.cls-6,.cls-7{font-family:ProximaNova-ExtraBold, Proxima Nova;font-weight:800;}.cls-7{font-size:24px;fill:#fff;}.cls-8{letter-spacing:-0.07em;}.cls-9{fill:none;stroke-miterlimit:10;opacity:0;stroke:url(#Безымянный_градиент_26-2);}</style><linearGradient id="Безымянный_градиент_26" x1="400" y1="132.65" x2="400" y2="759.8" gradientUnits="userSpaceOnUse"><stop offset="0" stop-color="#0080c9"/><stop offset="1" stop-color="#00ffbe"/></linearGradient><linearGradient id="Безымянный_градиент_32" x1="353.03" y1="408.46" x2="353.03" y2="380.89" gradientUnits="userSpaceOnUse"><stop offset="0" stop-color="#5301e0"/><stop offset="1" stop-color="#0080c9"/></linearGradient><linearGradient id="Безымянный_градиент_32-2" x1="553.61" y1="373.04" x2="553.61" y2="358.56" xlink:href="#Безымянный_градиент_32"/><linearGradient id="Безымянный_градиент_32-3" x1="562.23" y1="251.14" x2="562.23" y2="226.2" xlink:href="#Безымянный_градиент_32"/><linearGradient id="Безымянный_градиент_32-4" x1="504.53" y1="392.84" x2="504.53" y2="377.56" xlink:href="#Безымянный_градиент_32"/><linearGradient id="Безымянный_градиент_26-2" x1="400" y1="-0.5" x2="400" y2="800.5" xlink:href="#Безымянный_градиент_26"/></defs><path class="cls-1" d="M421,257.78c-6.56-4.58-8-6.77-8.47-15.42-.33-6.62,3.62-8.22,3.16-14.58-.88-12-15.6-14.61-15.78-25.39-.11-6.44,5-13.11,8.94-13,6.4.24,6.72,4.74,7.68,4.41s-3.65-2.27,2.31-13.6c2.74-5.19,5.7-4.08,13.68-13,6.91-7.69,7.91-11.29,13.5-16.49,1.15-1.08,1.11-1.28,16-8.9,7.56-3.88,13.57-6.73,14.2-7,12.5-5.7,100.06-1.13,218.32,22.14,2,5.34,5.41,11.93,11.57,14.05,8.12,2.79,14.86-6.63,18.94-2.16,23.14,25.39-1.53,25.48,8.94,45.91,7.56,14.76,18,13.73,20.52,26.47,2.23,11.52-4.07,24-11.58,31.34-12.62,12.25-23.72,4.93-33.67,16.2-10.37,11.76-2.75,24.79-13.67,34.57-7.36,6.6-29.52-4.45-24.73,7,9.81,23.46-21.72,46-34.72,56.72-8.43,7,13.71,19.93,20.52,18.36,4.8-1.1,5.48-7.17,11-8.1,6.78-1.13,10.45,7.12,14.73,5.94,6.69-1.85,6.69-37.06,22.41-31.82,19.62,6.54,23.06-6.1,26.74-7.5,15.8-6,35,31.75,47.4,8.17,12.57-23.8,6,101.38,5.5,143,0,3.6-6.95,5.26-16.83,14.05-10.09,9-13,12.6-18.94,13.5-8.49,1.29-13.74-4.43-15.78-2.16-3.19,3.54,11.13,15.66,8.94,31.33-1.06,7.56-4.73,7.19-5.79,14-1.95,12.69,9.83,19.33,20.52,40,6.73,13,13.51,26.09,8.94,36.19-4.3,9.51-14.85,8-35.77,18.37-21.54,10.67-18.11,16.09-35.24,24.31-30.35,14.56-46.59.18-61.55,15.13-12.27,12.24-5.88,26.41-19.47,35.65-7.79,5.3-16.17,4.68-32.61,3.24-36.41-3.2-45.7-16.49-62.6-9.18-7.41,3.2-12.54,8.74-20.52,7-6.54-1.42-8.68-6.36-15.78-7-6.5-.61-9.85,3.06-14.73,4.86-17.37,6.38-40.7-16-50.5-25.39-7.45-7.15-17.9-17.39-24.72-34.57-4.63-11.66-10.4-26.18-4.74-39.44,2.84-6.66,7.3-10,5.79-14-2.22-5.9-13-2.06-20-9.19-8.38-8.54-.54-21.94-7.89-27.55-6.12-4.66-13.28,3.32-28.41,0-6.94-1.52-6-3.32-15.78-7-9.25-3.49-24.24-9.16-36.83-3.24,0,0-1.5.71-14.72,10.26-11.81,5.6-12.63,7-12.63,7-4,6.95,8.83,16,5.79,24.31-3.33,9.06-21.23,5.24-25.78,15.66-3.08,7.05,3.6,12.25,0,18.91-4.29,7.92-17.84,8.06-21.57,8.1-9.82.1-11.52-3.31-25.77-5.94-11.84-2.19-20.73-3.83-25.78,1.08-5.25,5.1-.53,11.6-5.79,19.45s-15.83,9.51-24.72,10.8a62.24,62.24,0,0,1-28.94-2.7c-17.44-6.1-27.12-18.48-31.56-24.31C68.36,671,58.85,658.52,57.94,641c-.31-6,.79-5.31,2.11-18.37,2.79-27.63-1.92-33.08,3.68-43.76,5.93-11.31,13.79-10.09,14.2-17.28.73-12.74-23.83-18.29-24.72-35.11-.43-8.12,4.94-13.33,2.63-15.67-3.91-3.95-17.62,12.55-26.3,9.18-18.82-7.29,4.64-100.69-11-142.07a76,76,0,0,1-4.74-22.14c-.55-8.68-1.47-23.19,6.84-32.42,7.45-8.27,13.85-2.88,23.67-11.34,11.47-9.87,7.71-21.44,17.89-26.47,8.82-4.36,14.32,3,21.57-1.62C91.91,278.73,87,268,96.34,254.25c1.8-2.63,8.83-12.95,20-15.13,11.72-2.28,15.38,6.85,24.73,4.87,15.26-3.25,15.28-29.69,29.46-32.42,9-1.74,11.19,8.63,23.67,11.35,20.47,4.46,29-20.3,61.55-27.55,7-1.55,19.38-.68,44.19,1.08,22.86,1.62,30.94,3.85,36.82,10.26,5.45,5.94,3.83,9.82,10,15.13,8.07,6.94,14.25,3.24,27.36,8.1,10.5,3.89,10.87,7.86,26.83,18.37C407.53,252.65,410.37,253.08,421,257.78Z"/><path class="cls-2" d="M347.37,381.31c1-.57,2.09-.65,2.55.37,1.89,4.18,3.71,6.63,5.65,7.78,2.36,1.41,4.39,2.11,7.07,3.55,3.76,2,2.72,6.82,2.48,7.35-.93,2-3.44,6.46-8.15,7.69-2.24.59-4.8.77-9.2-1.06-4.86-2-7.06-9.35-7.13-11.74C340.56,392.34,341.18,385,347.37,381.31Z"/><path class="cls-3" d="M553.36,358.57c-3.15.26-4.89,4-5.31,4.91s-2,4.38-.41,6.94c2,3.09,7.66,3.54,10.63.82a6.88,6.88,0,0,0,2-4.9C560.31,362.39,556.85,358.29,553.36,358.57Z"/><path class="cls-4" d="M552.14,230.27c-.84,2-2.67,4.12-.26,8.4,1.57,2.78,7.07,9.1,11,11.61,2.18,1.41,5.41,1,8.1-.4,4.09-2.06,2.62-11.2,2.46-12.26-.46-2.81-1-6.18-3.68-8.58C564.43,224.32,553.9,226,552.14,230.27Z"/><rect class="cls-5" x="496.89" y="377.56" width="15.29" height="15.29" rx="7.64"/><text class="cls-6" transform="translate(15.57 60.51)">Норильский городской округ</text><text class="cls-7" transform="translate(400 418.35)">Центральный р-н</text><text class="cls-7" transform="translate(255.16 373.06)">р-н Кайеркан</text><text class="cls-7" transform="translate(488.62 346.52)">р-н Оганер</text><text class="cls-7" transform="translate(504.53 277.09)">р-н <tspan class="cls-8" x="41.71" y="0">Т</tspan><tspan x="54.19" y="0">алнах</tspan></text><rect class="cls-9" width="800" height="800"/></svg>