<svg id="Слой_1" data-name="Слой 1" xmlns="http://www.w3.org/2000/svg" xmlns:xlink="http://www.w3.org/1999/xlink" viewBox="0 0 1000 1000"><defs><style>.cls-1{fill:url(#Безымянный_градиент_26);}.cls-16,.cls-2,.cls-3,.cls-4,.cls-5,.cls-6,.cls-7,.cls-8,.cls-9{fill:none;}.cls-16,.cls-3,.cls-4,.cls-5,.cls-6,.cls-7,.cls-8,.cls-9{stroke:#fff;stroke-linecap:round;stroke-linejoin:round;}.cls-3{stroke-width:16px;}.cls-4{stroke-width:11px;}.cls-5{stroke-width:19px;}.cls-6{stroke-width:21px;}.cls-7{stroke-width:8px;}.cls-8{stroke-width:6px;}.cls-9{stroke-width:18px;}.cls-10{font-size:36px;fill:#3c3c3b;font-family:ProximaNova-ExtraBold, Proxima Nova;font-weight:800;}.cls-11{font-size:24px;}.cls-11,.cls-12,.cls-15{fill:#706f6f;}.cls-11,.cls-12,.cls-15,.cls-17{font-family:ProximaNova-Regular, Proxima Nova;}.cls-12{font-size:34px;}.cls-13{letter-spacing:-0.07em;}.cls-14{letter-spacing:0em;}.cls-15,.cls-17{font-size:20px;}.cls-16{stroke-width:7px;}.cls-17{fill:#606060;}</style><linearGradient id="Безымянный_градиент_26" x1="505.74" y1="-53.39" x2="505.74" y2="1035.88" gradientUnits="userSpaceOnUse"><stop offset="0" stop-color="#0080c9"/><stop offset="1" stop-color="#00ffbe"/></linearGradient></defs><rect class="cls-1" x="-38.9" y="-53.39" width="1089.27" height="1089.27"/><path class="cls-2" d="M565.82,764.31l344.87-26.12-7.35-201.33L350.05,9.88,15.41,8.17V580.33L330,663Z"/><polyline class="cls-3" points="792.87 726.81 792.87 472.59 294.97 26.1 164.4 26.1"/><rect class="cls-4" x="500.62" y="480.03" width="44.65" height="44.65" rx="20.75"/><line class="cls-4" x1="792.87" y1="502.35" x2="545.27" y2="502.35"/><line class="cls-4" x1="522.94" y1="726.81" x2="522.94" y2="524.68"/><polyline class="cls-5" points="329.88 61.48 99.46 258.81 315.94 480.03 398.47 467.17 448.53 515.88 448.53 644.41 790.71 644.41"/><line class="cls-6" x1="505.72" y1="478.5" x2="202.67" y2="180.15"/><polyline class="cls-4" points="164.4 200.63 113.67 147.87 197.32 78.19 246.88 132.36"/><line class="cls-7" x1="271.1" y1="247.52" x2="402.97" y2="122.95"/><line class="cls-8" x1="96.75" y1="483.58" x2="308.59" y2="284.43"/><line class="cls-8" x1="303.23" y1="467.04" x2="399.95" y2="374.37"/><line class="cls-7" x1="545.27" y1="250.56" x2="408.64" y2="382.92"/><path class="cls-7" d="M505.72,288.87l233.7,213.48V644.41c30.52,46,53.45,59.54,53.45,59.54"/><line class="cls-7" x1="485.52" y1="458.62" x2="622.57" y2="319.88"/><line class="cls-9" x1="528.32" y1="545.65" x2="790.71" y2="545.65"/><line class="cls-7" x1="448.53" y1="649.79" x2="347.06" y2="649.79"/><line class="cls-7" x1="99.46" y1="258.81" x2="70.54" y2="251.37"/><text class="cls-10" transform="translate(96.75 567.61)">Центральный р-н</text><text class="cls-11" transform="matrix(0.75, 0.66, -0.66, 0.75, 459.38, 185.23)">Талнахская</text><text class="cls-11" transform="translate(156.89 220.14) rotate(-40.81)">Орджоникидзе</text><text class="cls-12" transform="matrix(0.71, 0.7, -0.7, 0.71, 287.76, 279.53)">Ленинский пр-т</text><text class="cls-11" transform="translate(148.05 319.88) rotate(46.08)">Комсомольская</text><text class="cls-11" transform="translate(500.62 652.83)">50 лет октября</text><text class="cls-11" transform="translate(613.07 552.52)">Пушкина</text><path class="cls-2" d="M981.36,371.35V-5.81H357.59C441.78,78.37,762.8,373.73,847,457.92Z"/><text class="cls-10" transform="translate(519.74 65.47)">р-н <tspan class="cls-13" x="62.57" y="0">Т</tspan><tspan class="cls-14" x="81.29" y="0">алнах</tspan></text><polyline class="cls-4" points="647.58 239.86 707.78 182.94 736.72 182.94 753.07 163.76"/><polyline class="cls-4" points="690.8 115.33 900.24 276.34 812.19 383.25"/><polyline class="cls-4" points="900.24 271.93 893.95 232.94 940.49 100.86 900.24 32.31"/><line class="cls-4" x1="896.46" y1="286.27" x2="955.58" y2="327.28"/><polyline class="cls-4" points="851.18 32.31 896.47 98.15 846.78 171.31 780.74 143.63 753.07 29.17"/><line class="cls-8" x1="747.41" y1="321.89" x2="834.16" y2="225.54"/><line class="cls-8" x1="866.12" y1="317.76" x2="700.32" y2="189.99"/><line class="cls-8" x1="828.54" y1="84.51" x2="868.09" y2="56.89"/><text class="cls-15" transform="translate(828.54 372) rotate(-50.75)">Строителей</text><text class="cls-15" transform="translate(657.55 239.86) rotate(-45.47)">Бауман.</text><text class="cls-15" transform="translate(751 170.76) rotate(36.71)">Федоровского</text><text class="cls-15" transform="translate(909.58 201.81) rotate(-70.05)">Рудная</text><text class="cls-15" transform="translate(747.41 41.46) rotate(74.98)">Енисейская</text><path class="cls-2" d="M35.46,771.05,74.3,618.88,299.94,670.8,479.38,938.48s-79.51,48.34-186.95,39.37C211.49,971.1,35.46,771.05,35.46,771.05Z"/><rect class="cls-16" x="411.77" y="885.83" width="15.64" height="15.64" rx="7.82" transform="translate(-289.49 206.73) rotate(-20.76)"/><path class="cls-4" d="M425.62,902.37c9.71,15.72,15.69,25.44,15.69,25.44S416.83,963.28,286.08,940c-40.06-7.12-107.63-62.8-158.56-109.61"/><path class="cls-4" d="M59.62,764.31l27.94-121.8s200.29,40.83,209.68,55.27c31.66,48.68,85.12,134.65,117.25,186.58"/><polyline class="cls-4" points="59.62 764.31 356.59 845.25 379.87 828.58"/><polyline class="cls-4" points="189.81 664.95 168.49 757.17 160.48 791.8"/><polyline class="cls-8" points="167.5 761.48 313.99 794.25 346.21 774.75"/><text class="cls-17" transform="translate(64.19 769.33) rotate(-76)">Первомайская</text><text class="cls-17" transform="translate(118.56 653.14) rotate(14)">Надеждинская</text><text class="cls-17" transform="translate(179.65 804.78) rotate(14)">Строительная</text><path class="cls-2" d="M388,697.26,537.1,745.74C544.76,748.8,758,734.81,758,734.81l28.72,26,47.62,10.54L973.76,885.68,939.2,945.73,727.52,982s-159.71-24.09-176.87-40.61C516.87,908.91,388,697.26,388,697.26Z"/><path class="cls-8" d="M922.05,914.64l13.05-27.25a5.56,5.56,0,0,0-2.71-8h0a5.73,5.73,0,0,0-7.17,2.61l-7.52,14.06-15.55,10.8"/><path class="cls-4" d="M529.34,795S588.69,901.24,617,929.75c3.74,3.76,17.72,11.66,17.72,11.66l87.69-47.68H777.3s7.26-4,9.94-4.59c14.07-2.92,43.3-1.16,57.46,1.3,19.18,3.33,73.87,24.62,73.87,24.62"/><polyline class="cls-8" points="726.11 971.22 777.74 922.84 777.74 893.73"/><text class="cls-10" transform="translate(640.23 842.68)">р-н Оганер</text><text class="cls-10" transform="translate(146.03 889.19)">р-н Кайеркан</text><text class="cls-17" transform="translate(657.55 936.23) rotate(-30.07)">Озерная</text></svg>